<svg width="38" height="38" viewBox="0 0 38 38" fill="none" xmlns="http://www.w3.org/2000/svg">
<mask id="path-1-inside-1_156_5152" fill="white">
<path d="M0 18.768C0 8.40272 8.40272 0 18.768 0C29.1333 0 37.536 8.40272 37.536 18.768C37.536 29.1333 29.1333 37.536 18.768 37.536C8.40272 37.536 0 29.1333 0 18.768Z"/>
</mask>
<path d="M0 18.768M37.536 18.768M37.536 18.768M0 18.768M18.768 0M37.536 18.768M18.768 37.536M0 18.768M18.768 37.536V36.4933C8.97857 36.4933 1.04267 28.5574 1.04267 18.768H0H-1.04267C-1.04267 29.7091 7.82687 38.5787 18.768 38.5787V37.536ZM37.536 18.768H36.4933C36.4933 28.5574 28.5574 36.4933 18.768 36.4933V37.536V38.5787C29.7091 38.5787 38.5787 29.7091 38.5787 18.768H37.536ZM18.768 0V1.04267C28.5574 1.04267 36.4933 8.97857 36.4933 18.768H37.536H38.5787C38.5787 7.82687 29.7091 -1.04267 18.768 -1.04267V0ZM18.768 0V-1.04267C7.82687 -1.04267 -1.04267 7.82687 -1.04267 18.768H0H1.04267C1.04267 8.97857 8.97857 1.04267 18.768 1.04267V0Z" fill="white" fill-opacity="0.4" mask="url(#path-1-inside-1_156_5152)"/>
<path d="M15.1187 13.2941L23.6338 18.7681L15.1187 24.2421V13.2941Z" fill="white" stroke="white" stroke-width="1.21644" stroke-linecap="round" stroke-linejoin="round"/>
</svg>
